<?xml version="1.0" ?><svg enable-background="new 0 0 24 24" id="Layer_1" version="1.1" viewBox="0 0 24 24" xml:space="preserve" xmlns="http://www.w3.org/2000/svg" xmlns:xlink="http://www.w3.org/1999/xlink"><g><polygon fill="#339EAD" points="22,10 9,6 11,12 22,16  "/><linearGradient gradientUnits="userSpaceOnUse" id="SVGID_1_" x1="8.4244356" x2="22.9327774" y1="7.2343025" y2="13.9996529"><stop offset="0" style="stop-color:#FFFFFF;stop-opacity:0.2"/><stop offset="1" style="stop-color:#FFFFFF;stop-opacity:0"/></linearGradient><polygon fill="url(#SVGID_1_)" points="22,10 9,6 11,12 22,16  "/><polygon opacity="0.1" points="9,6 11,12 22,16 22,15.75 11,11.75  "/><polygon fill="#1991A3" points="2,0 8,2 8,24 2,22  "/><polygon fill="#008599" points="22,10 2,22 8,24 22,16  "/><polygon fill="#FFFFFF" opacity="0.2" points="2,0 2,0.25 8,2.25 8,2  "/><polygon fill="#FFFFFF" opacity="0.2" points="9,6 9.0928345,6.2785645 21.7245483,10.1652832 2,22 22,10.25 22,10  "/><polygon opacity="0.1" points="8,24 22,16 22,15.75 8,23.75 2.2678833,21.8392944 2,22  "/><linearGradient gradientUnits="userSpaceOnUse" id="SVGID_2_" x1="-2.0604482" x2="20.4957829" y1="8.7076588" y2="19.2258034"><stop offset="0" style="stop-color:#FFFFFF;stop-opacity:0.2"/><stop offset="1" style="stop-color:#FFFFFF;stop-opacity:0"/></linearGradient><polygon fill="url(#SVGID_2_)" points="9,6 11,12 15.7735596,13.7358398 8,18.4000244 8,2 2,0 2,22 8,24 22,16 22,10  "/></g><g/><g/><g/><g/><g/><g/><g/><g/><g/><g/><g/><g/><g/><g/><g/></svg>